<svg width="120" height="120" viewBox="0 0 120 120" xmlns="http://www.w3.org/2000/svg">
  <defs>
    <!-- 新月渐变 - 从深靛蓝到温暖的金棕色 -->
    <linearGradient id="moonGradient" x1="0%" y1="0%" x2="100%" y2="100%">
      <stop offset="0%" style="stop-color:#4A5568;stop-opacity:1" />
      <stop offset="30%" style="stop-color:#5D3587;stop-opacity:1" />
      <stop offset="70%" style="stop-color:#8A7CBF;stop-opacity:1" />
      <stop offset="100%" style="stop-color:#D69E2E;stop-opacity:1" />
    </linearGradient>
    
    <!-- 莲花渐变 - 从淡紫色到淡黄色 -->
    <linearGradient id="lotusGradient" x1="0%" y1="0%" x2="100%" y2="100%">
      <stop offset="0%" style="stop-color:#E2C4F7;stop-opacity:1" />
      <stop offset="30%" style="stop-color:#B794F4;stop-opacity:1" />
      <stop offset="70%" style="stop-color:#F6E05E;stop-opacity:1" />
      <stop offset="100%" style="stop-color:#FAF3E0;stop-opacity:1" />
    </linearGradient>
    
    <filter id="shadow" x="-20%" y="-20%" width="140%" height="140%">
      <feDropShadow dx="2" dy="4" stdDeviation="3" flood-color="#4A5568" flood-opacity="0.2"/>
    </filter>
  </defs>
  
  <!-- 新月主体 -->
  <path d="M 20 60 A 40 40 0 0 1 100 60 A 40 40 0 0 1 20 60 Z" 
        fill="url(#moonGradient)" 
        filter="url(#shadow)"
        stroke="#4A5568" 
        stroke-width="0.5"/>
  
  <!-- 新月内弧 -->
  <path d="M 30 60 A 30 30 0 0 1 90 60 A 30 30 0 0 1 30 60 Z" 
        fill="none" 
        stroke="#8A7CBF" 
        stroke-width="0.5" 
        opacity="0.4"/>
  
  <!-- 莲花花瓣 - 外层 -->
  <g transform="translate(60, 60)">
    <!-- 外层花瓣 -->
    <path d="M -12 -20 Q -20 -12 -12 0 Q -20 12 -12 20 Q -12 12 0 12 Q 12 12 12 20 Q 20 12 12 0 Q 20 -12 12 -20 Q 12 -12 0 -12 Q -12 -12 -12 -20 Z" 
          fill="url(#lotusGradient)" 
          opacity="0.7"
          stroke="#E2C4F7"
          stroke-width="0.3"/>
    
    <!-- 中层花瓣 -->
    <path d="M -9 -15 Q -15 -9 -9 0 Q -15 9 -9 15 Q -9 9 0 9 Q 9 9 9 15 Q 15 9 9 0 Q 15 -9 9 -15 Q 9 -9 0 -9 Q -9 -9 -9 -15 Z" 
          fill="url(#lotusGradient)" 
          opacity="0.8"
          stroke="#B794F4"
          stroke-width="0.3"/>
    
    <!-- 内层花瓣 -->
    <path d="M -6 -10 Q -10 -6 -6 0 Q -10 6 -6 10 Q -6 6 0 6 Q 6 6 6 10 Q 10 6 6 0 Q 10 -6 6 -10 Q 6 -6 0 -6 Q -6 -6 -6 -10 Z" 
          fill="url(#lotusGradient)" 
          opacity="0.9"
          stroke="#F6E05E"
          stroke-width="0.3"/>
    
    <!-- 花心 -->
    <circle cx="0" cy="0" r="4" fill="#FAF3E0" opacity="0.9"/>
    <circle cx="0" cy="0" r="2" fill="#D69E2E" opacity="0.6"/>
  </g>
  
  <!-- 装饰性星星 -->
  <circle cx="25" cy="25" r="1" fill="#E2C4F7" opacity="0.6"/>
  <circle cx="95" cy="35" r="0.8" fill="#B794F4" opacity="0.5"/>
  <circle cx="90" cy="90" r="1.2" fill="#F6E05E" opacity="0.4"/>
  <circle cx="30" cy="95" r="0.6" fill="#E2C4F7" opacity="0.3"/>
</svg> 